<svg xmlns="http://www.w3.org/2000/svg" width="300" height="234" viewBox="0 0 300 234">
    <g fill="none" fill-rule="evenodd">
        <path fill="#EFF4F7" d="M0 233.793h216.207V94.138H0z"/>
        <path stroke="#171fc9" stroke-width="2" d="M14.063 116.852h56.25-56.25zM14.063 135.548h32.812"/>
        <path stroke="#CFD3D6" stroke-width="2" d="M89.063 205.66c5.18-6.231 13.57-6.231 18.75 0M126.563 205.66c5.18-6.231 13.57-6.231 18.75 0M126.563 205.66c-5.18 6.23-13.57 6.23-18.75 0M164.063 205.66c-5.18 6.23-13.57 6.23-18.75 0M89.063 182.29c5.18-6.231 13.57-6.231 18.75 0M126.563 182.29c5.18-6.231 13.57-6.231 18.75 0M126.563 182.29c-5.18 6.23-13.57 6.23-18.75 0M164.063 182.29c-5.18 6.23-13.57 6.23-18.75 0"/>
        <path fill="#171fc9" stroke="#171fc9" stroke-width=".5" d="M14.063 215.008h56.25v-56.09h-56.25z"/>
        <path fill="#BEEFFF" d="M23.438 205.66h37.5v-37.393h-37.5z"/>
        <path stroke="#FFF" stroke-width="2" d="M37.5 186.963h9.375"/>
        <path fill="#6CB9FF" d="M300 130.874a9.297 9.297 0 0 1-2.747 6.61 9.351 9.351 0 0 1-6.628 2.738H93.75c-2.4 0-4.795-.911-6.628-2.739a9.297 9.297 0 0 1-2.747-6.609H300zM84.375 130.874H300V0H84.375z"/>
        <path fill="#BEEFFF" d="M84.375 0L150 65.437h84.375L300 0z"/>
        <path fill="#7AD3FF" d="M234.375 65.437H150l-65.625 65.437H300z"/>
        <path stroke="#FFF" stroke-width="2" d="M168.75 98.156h9.375M187.5 98.156h9.375M206.25 98.156h9.375"/>
        <path stroke="#DEE3E7" stroke-width="2" d="M262.5 196.311h-23.438M300 177.615h-46.875M37.5 37.393h23.438M0 56.089h46.875"/>
    </g>
</svg>
