<svg xmlns="http://www.w3.org/2000/svg" width="382" height="257" viewBox="0 0 382 257">
    <g fill="none" fill-rule="evenodd">
        <path fill="#171fc9" stroke="#171fc9" stroke-width=".5" d="M76 112.07v135.432h224V112.07L188 40.365z"/>
        <path fill="#EFF4F7" d="M271.067 0l-11.943 12.054L247.186 0l-11.947 12.054L223.296 0l-11.94 12.054L199.41 0l-11.943 12.054L175.528 0l-11.947 12.054L151.64 0l-11.94 12.054L127.754 0 115.81 12.054 103.87 0 91.924 12.054V184.83h191.09V12.054z"/>
        <path stroke="#CFD3D6" stroke-width="2" d="M116.341 115.784h67.943M116.341 131.718h67.943M116.341 148.714h67.943M116.341 164.647h67.943M191.716 115.784h67.943M191.716 131.718h67.943M191.716 148.714h67.943M191.716 164.647h67.943M116.341 36.116h144.38"/>
        <path fill="#7AD3FF" d="M116.341 105.162h144.38V48.863H116.34z"/>
        <path stroke="#FFF" stroke-width="2" d="M167.299 75.42h8.492M184.284 75.42h8.493M200.209 75.42h8.492"/>
        <path fill="#7AD3FF" d="M76 247.502h224L76 111.535z"/>
        <path fill="#6CB9FF" d="M76 247.502h224V111.535z"/>
        <path stroke="#7AD3FF" stroke-width="2" d="M240.55 231.568h48.834M240.55 215.635h32.91"/>
        <path fill="#171fc9" stroke="#171fc9" stroke-width=".5" d="M300 247.502c0 2.176-.78 4.347-2.344 6.008-1.564 1.661-3.608 2.49-5.656 2.49H84c-2.048 0-4.092-.829-5.656-2.49C76.78 251.85 76 249.678 76 247.502h224z"/>
        <path stroke="#DEE3E7" stroke-width="2" d="M342 209h-25M382 189h-50M39 40h25M0 61h50"/>
    </g>
</svg>