<svg id="primaryNavLogo" viewBox="0 0 134 41" version="1.1" xmlns="http://www.w3.org/2000/svg" xmlns:xlink="http://www.w3.org/1999/xlink">
                <title>Steem logo</title>
                <defs></defs>
                <g id="Page-1" stroke="none" stroke-width="1" fill="#171FC9" fill-rule="evenodd">
                    <g id="steem-max-logo" class="primary-logo" fill-rule="nonzero">
                        <path d="M20.6213438,40.9958376 C9.2324901,40.9958376 0,31.8186068 0,20.4979188 C0,9.17723084 9.2324901,0 20.6213438,0 C32.0101975,0 41.2426876,9.17723084 41.2426876,20.4979188 C41.2426876,31.8186068 32.0101975,40.9958376 20.6213438,40.9958376 Z M24.7355625,25.3013706 C24.7006412,24.9925237 24.6332737,24.6881618 24.5345625,24.3932657 L24.2128229,23.4352115 L21.2048021,16.3895939 C20.9954271,15.9178511 20.8076875,15.4315398 20.6464687,14.9424535 L20.5068854,14.5185787 C20.1078392,13.302186 20.0458794,12.0013894 20.3275208,10.7529611 L20.5885417,9.57846024 C20.6050264,9.49448142 20.5681245,9.40903077 20.4955231,9.36306461 C20.4229217,9.31709846 20.3294159,9.31998408 20.2598229,9.37033841 L19.5898229,9.89549915 C19.0223953,10.3401214 18.4823953,10.8182781 17.97275,11.3273773 L17.7215,11.578511 C16.7631902,12.5313592 16.2947107,13.8668234 16.4491979,15.2053807 L16.5043333,15.6909983 C16.5392547,15.9998452 16.6066222,16.3042071 16.7053333,16.5991032 L17.0291667,17.5606261 L20.0364896,24.6055499 C20.246816,25.0783511 20.433161,25.5613376 20.5948229,26.0526904 L20.7344062,26.4765651 C21.1350377,27.6942759 21.1977267,28.9968744 20.9158646,30.2470389 L20.6513542,31.4201523 C20.6348695,31.5041311 20.6717713,31.5895818 20.7443727,31.6355479 C20.8169741,31.6815141 20.9104799,31.6786284 20.9800729,31.6282741 L21.6507708,31.1031134 C22.2181952,30.6584872 22.758195,30.1803307 23.2678437,29.6712352 L23.5197917,29.4145516 C24.4781015,28.4617034 24.946581,27.1262392 24.7920937,25.7876819 L24.7355625,25.3013706 Z M31.40625,24.6867174 L31.3629792,24.3051607 C31.3333037,24.058393 31.2776301,23.815407 31.196875,23.580203 L30.9414375,22.8170897 L28.5566562,17.2310998 C28.3905521,16.857868 28.2418958,16.4721489 28.114875,16.0850423 L28.0053021,15.7506599 C27.6898076,14.7868589 27.6415874,13.75633 27.8657187,12.7675804 L28.0702083,11.8615567 C28.087256,11.7842292 28.053747,11.7045713 27.9863982,11.6623225 C27.9190494,11.6200737 27.8322915,11.6242866 27.7694062,11.6728596 L27.2564375,12.0745347 C26.8058659,12.427649 26.3770382,12.8073456 25.9722708,13.2115736 L25.7761562,13.4072081 C25.0110387,14.1682204 24.6371277,15.2347049 24.7606875,16.3035702 L24.8039583,16.6851269 C24.8318202,16.9316933 24.8856215,17.174675 24.9644792,17.4100846 L25.2199167,18.173198 L27.604,23.7584941 C27.7701042,24.1317259 27.9187604,24.5167513 28.0457812,24.9045516 L28.1553542,25.238934 C28.4708486,26.202735 28.5190688,27.2332639 28.2949375,28.2220135 L28.0904479,29.1280372 C28.0724676,29.2055895 28.1061389,29.285917 28.1741979,29.3278342 C28.2415105,29.3705839 28.3287062,29.3661248 28.39125,29.3167343 L28.9042187,28.9150592 C29.3547936,28.5619488 29.7836215,28.1822519 30.1883854,27.7780203 L30.3845,27.5823858 C31.1517032,26.822675 31.5279634,25.7563431 31.40625,24.6867174 Z M16.4840938,24.6867174 L16.4408229,24.3051607 C16.412961,24.0585944 16.3591598,23.8156127 16.2803021,23.580203 L16.0248646,22.8170897 L13.6400833,17.2310998 C13.4739792,16.857868 13.3253229,16.4721489 13.1983021,16.0850423 L13.0887292,15.7506599 C12.7732347,14.7868589 12.7250145,13.75633 12.9491458,12.7675804 L13.1536354,11.8615567 C13.1706831,11.7842292 13.1371741,11.7045713 13.0698253,11.6623225 C13.0024764,11.6200737 12.9157186,11.6242866 12.8528333,11.6728596 L12.3398646,12.0745347 C11.889293,12.427649 11.4604653,12.8073456 11.0556979,13.2115736 L10.8595833,13.4072081 C10.0915652,14.1688534 9.71620482,15.2378499 9.840625,16.3091201 L9.88389583,16.6906768 C9.91175774,16.9372432 9.96555898,17.1802249 10.0444167,17.4156345 L10.2998542,18.1787479 L12.6839375,23.764044 C12.8500417,24.1372758 12.9986979,24.5223012 13.1257188,24.9101015 L13.2352917,25.2444839 C13.5507861,26.2082849 13.5990063,27.2388138 13.374875,28.2275635 L13.1703854,29.1335871 C13.1524051,29.2111395 13.1860764,29.2914669 13.2541354,29.3333841 C13.321448,29.3761339 13.4086437,29.3716748 13.4711875,29.3222843 L13.9841563,28.9206091 C14.4347311,28.5674987 14.863559,28.1878018 15.2683229,27.7835702 L15.4644375,27.5879357 C16.2325061,26.826576 16.6081126,25.7578664 16.4840938,24.6867174 Z" id="blue-circle"></path>
                        <path d="M87.6304167,14.9924027 C84.0103229,14.9924027 80.5158542,18.0594247 80.5158542,23.0661421 C80.5158542,28.1346024 83.8532917,31.1079695 88.1336146,31.1079695 C90.0877812,31.1079695 91.9428437,30.41978 93.4224271,29.4499323 L92.393,27.0350254 C91.3237917,27.9660237 89.9279583,28.3232995 88.6061042,28.3232995 C86.1194271,28.3232995 84.3564896,26.7589171 84.0417292,23.9735533 L93.8628125,23.9735533 C93.9570312,23.5975465 94.0205417,22.9724873 94.0205417,22.2836041 C94.0212396,17.9962944 91.8172187,14.9924027 87.6304167,14.9924027 Z M84.0103229,21.6890694 C84.3250833,19.1222335 85.8988854,17.7777665 87.7253333,17.7777665 C89.8344375,17.7777665 90.8736354,19.2484941 90.8736354,21.6890694 L84.0103229,21.6890694 Z M102.799635,14.9924027 C99.1795417,14.9924027 95.6850729,18.0594247 95.6850729,23.0661421 C95.6850729,28.1346024 99.0225104,31.1079695 103.302833,31.1079695 C105.257,31.1079695 107.112063,30.41978 108.591646,29.4499323 L107.562219,27.0350254 C106.49301,27.9660237 105.097177,28.3232995 103.775323,28.3232995 C101.288646,28.3232995 99.5257083,26.7589171 99.2109479,23.9735533 L109.032031,23.9735533 C109.12625,23.5975465 109.18976,22.9724873 109.18976,22.2836041 C109.18976,17.9962944 106.98574,14.9924027 102.799635,14.9924027 Z M99.1795417,21.6890694 C99.4943021,19.1222335 101.068104,17.7777665 102.894552,17.7777665 C105.003656,17.7777665 106.042854,19.2484941 106.042854,21.6890694 L99.1795417,21.6890694 Z M129.215083,14.9896277 C132.48901,14.9896277 134,17.2116751 134,21.0896785 L134,30.7326565 L130.347802,30.7326565 L130.347802,21.5607276 C130.347802,19.0258037 129.591958,18.0871743 127.98675,18.0871743 C127.044562,18.0871743 126.014437,18.6706091 124.86776,19.8659222 C124.789019,19.9483458 124.744843,20.0575035 124.744229,20.1711675 L124.744229,30.7326565 L121.124135,30.7326565 L121.124135,21.5607276 C121.124135,19.0258037 120.368292,18.0871743 118.731677,18.0871743 C117.820198,18.0871743 116.761458,18.6706091 115.612688,19.8659222 C115.534066,19.9484224 115.48991,20.0575309 115.489156,20.1711675 L115.489156,30.7326565 L111.869063,30.7326565 L111.869063,15.364247 L114.860333,15.364247 L115.112281,17.4607276 L115.237906,17.4607276 C116.528354,16.0843486 118.039344,14.9896277 119.96001,14.9896277 C122.226146,14.9896277 123.516594,16.021912 124.241031,17.7430795 C125.720615,16.1786971 127.260917,14.9896277 129.215083,14.9896277 Z M77.6201979,28.226176 C78.0170815,28.2181994 78.4108549,28.154676 78.7899062,28.0374788 L79.8549271,30.5418782 C79.7188333,30.5862775 79.5771562,30.6320643 79.4298958,30.6757699 C78.5487483,30.9510255 77.6316068,31.0957211 76.7080208,31.1051946 C73.1193333,31.1051946 71.7967812,28.8519289 71.7967812,25.534467 L71.7967812,18.4222504 L69.5927604,18.4222504 L69.5927604,15.5779188 L71.9824271,15.5779188 L72.1178229,13.0464636 L75.4447917,10.1057022 L75.4447917,15.5806937 L78.6949896,15.5806937 L78.6949896,18.4250254 L75.4475833,18.4250254 L75.4475833,25.5351607 C75.4475833,27.3499831 76.1406146,28.226176 77.6201979,28.226176 Z M64.4937812,19.4940778 C66.9490521,20.5284433 68.6491771,22.0609137 68.6484792,25.0315059 C68.6484792,28.3482741 65.8784479,31.1024196 61.2505625,31.1024196 C58.4844256,31.0999098 55.8291088,30.021481 53.8526458,28.0978342 L56.305125,25.9298985 C57.7400417,27.1370051 59.5720729,27.9417428 61.3454792,27.9417428 C63.6437188,27.9417428 64.9341667,26.9087648 64.9341667,25.3131641 C64.9341667,23.6232149 63.6130104,23.0918105 61.72375,22.3092724 L58.9216146,21.0889848 C56.8753229,20.2447039 54.7662188,18.6484095 54.7662188,15.6445178 C54.7662188,12.3901861 57.6632708,9.88648054 61.6609375,9.88648054 C64.0743333,9.88648054 66.3935104,10.8785279 67.9987188,12.462335 L65.7256042,14.4741794 C64.5426354,13.5757868 63.2403229,13.0478511 61.6602396,13.0478511 C59.7060729,13.0478511 58.4498229,13.955956 58.4498229,15.4572081 C58.4498229,17.0535025 60.023625,17.648731 61.72375,18.3369205 L64.4937812,19.4940778 Z" id="wordmark"></path>
                    </g>
                </g>
            </svg>