<?xml version="1.0" encoding="UTF-8"?>
<svg width="200px" height="66px" viewBox="0 0 200 66" version="1.1" xmlns="http://www.w3.org/2000/svg" xmlns:xlink="http://www.w3.org/1999/xlink">
  <defs></defs>
  <g id="Page-1" stroke="none" stroke-width="1" fill="none" fill-rule="evenodd">
    <g id="steem-logotype-blue-on-white" fill-rule="nonzero">
      <g id="Page-1">
        <path d="M9.25680664,7.35548938 C8.60652166,7.03251062 0.357720357,13.8178723 0.357720357,18.81 C0.346336813,25.6332766 9.97966174,41.0913192 11.6018169,47.0706382 C12.9977241,52.1989788 9.23403959,58.3538299 10.2685192,58.6332768 C11.2133534,59.2371062 20.2006622,50.1796597 20.5507062,46.3179577 C21.0017792,40.1687234 10.0565007,22.2377873 9.18423656,17.6079575 C8.17252398,12.204383 9.98535353,7.47625531 9.25680664,7.35548938 Z" id="Fill-1" fill="#1A5099"></path>
        <path d="M29.8453708,0.296297871 C29.0172177,-0.115148936 18.4945534,8.52944681 18.4945534,14.9033617 C18.4831699,23.6041276 30.7674379,43.318468 32.8349743,50.9365531 C34.613653,57.4761701 29.8169118,65.3259577 31.1288654,65.6770212 C32.3412131,66.4437448 43.795905,54.9035747 44.246978,49.9718299 C44.8246929,42.1332768 30.861352,19.2705958 29.7500336,13.3572766 C28.4608472,6.48344681 30.7674379,0.449361701 29.8453708,0.296297871 Z" id="Fill-2" fill="#4BA2F2"></path>
        <path d="M51.0941805,7.35548938 C50.4495871,7.03251062 42.1950942,13.8178723 42.1950942,18.81 C42.1851336,25.6332766 51.8170353,41.0913192 53.4406137,47.0706382 C54.8350979,52.1989788 51.0728361,58.3538299 52.1058929,58.6332768 C53.0564191,59.2371062 62.0451506,50.1796597 62.3895029,46.3179577 C62.8391527,40.1687234 51.8952971,22.2377873 51.0216104,17.6079575 C50.0113207,12.204383 51.8227274,7.47625531 51.0941805,7.35548938 Z" id="Fill-3" fill="#1A5099"></path>
      </g>
      <path d="M106.488365,37.472069 C106.488365,30.1051035 94.9831079,32.3832414 94.9831079,28.7441379 C94.9831079,27.2944138 96.2614697,26.318069 98.2830651,26.318069 C99.8884502,26.318069 101.523564,26.7322758 102.920844,27.6494483 C103.218137,27.8565517 103.54516,27.9453103 103.872183,27.9453103 C104.734334,27.9453103 105.596485,27.2352414 105.596485,26.318069 C105.596485,25.9926207 105.477567,25.6375862 105.239733,25.3713103 C103.931641,23.9511724 100.958707,23.2115172 98.5803589,23.2115172 C94.2101448,23.2115172 91.3561274,25.7263448 91.3561274,29.0104138 C91.3561274,36.2886207 102.891114,33.7442069 102.891114,37.8271035 C102.891114,39.0993103 101.761399,40.4898621 98.9668402,40.4898621 C96.8857859,40.4898621 95.1317544,39.7502069 93.7642046,38.7146897 C93.4966402,38.5075862 93.1398884,38.4188276 92.8128656,38.4188276 C91.9209851,38.4188276 91.1182925,39.188069 91.1182925,40.1052414 C91.1182925,40.4602758 91.23721,40.7857242 91.4750448,41.0815862 C92.8128656,42.649655 95.9047174,43.5964139 98.8181938,43.5964139 C104.169476,43.5964139 106.488365,40.7857242 106.488365,37.472069 Z M128.39432,25.0754483 C128.39432,24.1878621 127.680816,23.5073793 126.848395,23.5073793 L114.064775,23.5073793 C113.202624,23.5073793 112.518849,24.1878621 112.518849,25.0162758 C112.518849,25.9334483 113.202624,26.613931 114.064775,26.613931 L118.672824,26.613931 L118.672824,41.6733104 C118.672824,42.6200688 119.445787,43.4188965 120.426856,43.4188965 C121.437653,43.4188965 122.240346,42.6200688 122.240346,41.6733104 L122.240346,26.613931 L126.848395,26.613931 C127.680816,26.613931 128.39432,25.9334483 128.39432,25.0754483 Z M149.497583,41.6437242 C149.497583,40.8153103 148.813808,40.1348276 147.981387,40.1348276 L139.240959,40.1348276 L139.240959,34.7501379 L147.773281,34.7501379 C148.605703,34.7501379 149.289478,34.0696552 149.289478,33.2116552 C149.289478,32.324069 148.605703,31.6435862 147.773281,31.6435862 L139.240959,31.6435862 L139.240959,26.613931 L147.981387,26.613931 C148.813808,26.613931 149.497583,25.9334483 149.497583,25.0754483 C149.497583,24.1878621 148.813808,23.5073793 147.981387,23.5073793 L137.843679,23.5073793 C136.654505,23.5073793 135.703166,24.4837242 135.703166,25.6375862 L135.703166,41.1111724 C135.703166,42.2650346 136.654505,43.2413792 137.843679,43.2413792 L147.981387,43.2413792 C148.813808,43.2413792 149.497583,42.5608965 149.497583,41.6437242 Z M171.254892,41.6437242 C171.254892,40.8153103 170.571117,40.1348276 169.738695,40.1348276 L160.998267,40.1348276 L160.998267,34.7501379 L169.53059,34.7501379 C170.363012,34.7501379 171.046787,34.0696552 171.046787,33.2116552 C171.046787,32.324069 170.363012,31.6435862 169.53059,31.6435862 L160.998267,31.6435862 L160.998267,26.613931 L169.738695,26.613931 C170.571117,26.613931 171.254892,25.9334483 171.254892,25.0754483 C171.254892,24.1878621 170.571117,23.5073793 169.738695,23.5073793 L159.600988,23.5073793 C158.411814,23.5073793 157.460475,24.4837242 157.460475,25.6375862 L157.460475,41.1111724 C157.460475,42.2650346 158.411814,43.2413792 159.600988,43.2413792 L169.738695,43.2413792 C170.571117,43.2413792 171.254892,42.5608965 171.254892,41.6437242 Z M199.909409,41.6733104 L199.909409,25.6671724 C199.909409,24.0695172 198.363483,23.2706897 196.758098,23.4482069 C195.628383,23.4482069 194.647315,24.0991035 194.231104,25.1050345 L189.533867,36.5548965 L184.866359,25.1050345 C184.301502,23.7736552 182.963681,23.3298621 181.447484,23.4482069 C180.228581,23.4482069 179.217783,24.4541379 179.217783,25.6671724 L179.217783,41.6733104 C179.217783,42.6200688 179.990746,43.4188965 180.942085,43.4188965 C181.952883,43.4188965 182.755576,42.6200688 182.755576,41.6733104 L182.755576,28.4778621 L188.582528,42.7975862 C188.731175,43.1526208 189.117656,43.4188965 189.504138,43.4188965 C189.979807,43.4188965 190.336559,43.1526208 190.485206,42.7975862 L196.341888,28.4778621 L196.341888,41.6733104 C196.341888,42.6200688 197.114851,43.4188965 198.095919,43.4188965 C199.106717,43.4188965 199.909409,42.6200688 199.909409,41.6733104 Z" id="steem" fill="#1A5099"></path>
    </g>
  </g>
</svg>