<?xml version="1.0" encoding="UTF-8"?>
<svg width="800px" height="600px" viewBox="0 0 800 600" version="1.1" xmlns="http://www.w3.org/2000/svg" xmlns:xlink="http://www.w3.org/1999/xlink">
    <!-- Generator: Sketch 45.2 (43514) - http://www.bohemiancoding.com/sketch -->
    <title>Final Symbol</title>
    <desc>Created with Sketch.</desc>
    <defs></defs>
    <g id="Page-1" stroke="none" stroke-width="1" fill="none" fill-rule="evenodd">
        <g id="Final-Symbol">
            <g id="Logo" transform="translate(251.000000, 136.000000)">
                <path d="M163.275828,293.105815 C91.78002,293.105815 33.6125459,234.938341 33.6125459,163.442533 C33.6125459,91.9467244 91.78002,33.7806672 163.275828,33.7806672 C196.659713,33.7806672 228.366045,46.4374131 252.560223,69.4173483 C255.592288,72.2978101 255.715554,77.091023 252.833676,80.1216711 C249.957464,83.1537361 245.167085,83.2784191 242.129353,80.3979574 C220.763213,60.1015413 192.760535,48.9225729 163.275828,48.9225729 C100.13095,48.9225729 48.7558685,100.297655 48.7558685,163.442533 C48.7558685,226.588827 100.13095,277.962492 163.275828,277.962492 C194.615195,277.962492 223.866121,265.548028 245.643148,243.007317 C264.614807,223.371155 275.786691,198.044911 277.549256,171.014194 L163.275828,171.014194 C159.094696,171.014194 155.704167,167.625082 155.704167,163.442533 C155.704167,159.2614 159.094696,155.872288 163.275828,155.872288 L292.93911,155.872288 L292.93911,163.442533 C292.93911,197.238722 280.011746,229.232675 256.534495,253.528866 C231.875589,279.049218 198.756656,293.105815 163.275828,293.105815" id="Fill-1" fill="#4BA2F2"></path>
                <path d="M163.176203,199.12782 C182.79035,199.12782 198.691461,183.22671 198.691461,163.612562 C198.691461,143.999851 182.79035,128.097303 163.176203,128.097303 C143.562055,128.097303 127.660944,143.999851 127.660944,163.612562 C127.660944,183.22671 143.562055,199.12782 163.176203,199.12782" id="Fill-4" fill="#4BA2F2"></path>
                <g id="Innershape" transform="translate(0.000000, 0.168121)" fill="#1A5099">
                    <path d="M255.060079,271.03591 C253.952203,277.423081 250.535174,282.769913 245.432622,286.08923 C245.234325,286.217117 245.074825,286.380927 244.892335,286.523184 C244.531664,286.685557 244.172431,286.850805 243.831878,287.072093 C219.842266,302.720303 191.951379,310.995605 163.176777,310.995605 C94.3404587,310.995605 36.3458062,263.698926 19.9762552,199.896186 C19.6285172,198.544032 19.305207,197.181818 18.9962662,195.81242 C18.9172349,195.466119 18.8439512,195.116944 18.7677937,194.769206 C18.5393213,193.724555 18.3223442,192.678467 18.1154258,191.625195 C18.0363944,191.221416 17.9588,190.817638 17.8826425,190.41386 C17.6829086,189.341907 17.4961072,188.26708 17.3193644,187.18938 C17.2633239,186.8517 17.2044097,186.515458 17.1512431,186.176342 C16.9270814,184.75234 16.7201629,183.322591 16.5376723,181.885657 C16.5362354,181.879909 16.5362354,181.874161 16.5347985,181.869851 C16.3580556,180.474588 16.2057406,179.069266 16.0692319,177.662508 C16.0275608,177.24005 15.9930744,176.816154 15.9557141,176.392259 C15.8651873,175.382094 15.783282,174.370493 15.7143092,173.35458 C15.6812597,172.866023 15.6496472,172.376028 15.6209085,171.886034 C15.5619942,170.878743 15.5160123,169.868579 15.4772151,168.85554 C15.4599719,168.407217 15.4398548,167.961767 15.4254855,167.513444 C15.3852513,166.072199 15.3579496,164.626644 15.3579496,163.17534 C15.3579496,161.929519 15.3737559,160.688008 15.4053684,159.449371 C15.4154269,159.041282 15.435544,158.634629 15.4499134,158.227977 C15.4772151,157.40174 15.5030799,156.575503 15.5433141,155.75214 C15.5691789,155.257835 15.6036653,154.766403 15.6338409,154.273535 C15.6769489,153.537825 15.7200569,152.803552 15.7746604,152.069278 C15.8120207,151.550545 15.8623134,151.031812 15.9054214,150.514516 C15.9657726,149.814729 16.02325,149.112068 16.0922228,148.416592 C16.1468263,147.877742 16.2100514,147.343203 16.2689657,146.807226 C16.3436862,146.133304 16.4169699,145.459382 16.500312,144.789771 C16.5678479,144.243736 16.6454424,143.699138 16.718726,143.15454 C16.8078159,142.496425 16.8969058,141.839746 16.9960542,141.184504 C17.0779595,140.638469 17.1670494,140.093871 17.2547023,139.547836 C17.3595985,138.901216 17.4630578,138.256033 17.5765755,137.610849 C17.6728501,137.060504 17.7763094,136.513032 17.8783317,135.964123 C17.9961602,135.330435 18.1154258,134.696747 18.2418759,134.06737 C18.3525198,133.518462 18.4674746,132.972427 18.5838662,132.424955 C18.7175011,131.798452 18.8525728,131.170512 18.9948293,130.545445 C19.1169687,130.002284 19.2448558,129.46056 19.3727429,128.920273 C19.522184,128.298081 19.6730621,127.677325 19.828251,127.060881 C19.9647597,126.519157 20.1041423,125.978869 20.2463987,125.441456 C20.4087723,124.827885 20.5740197,124.217188 20.7435779,123.607928 C20.893019,123.069078 21.045334,122.531665 21.2005228,121.995689 C21.3772657,121.390739 21.5568825,120.788664 21.7393731,120.188026 C21.9031835,119.654923 22.066994,119.121821 22.2351153,118.590155 C22.4247905,117.990954 22.6216505,117.393189 22.8185104,116.796862 C22.9938164,116.269507 23.1676854,115.743589 23.348739,115.219108 C23.5513467,114.627092 23.762576,114.037949 23.9723684,113.448806 C24.1606067,112.925762 24.3474081,112.402718 24.5413942,111.881111 C24.7598081,111.294842 24.9839698,110.711447 25.2095684,110.128051 C25.4064284,109.613629 25.6032883,109.100644 25.807333,108.590532 C26.0415532,108.002826 26.2829581,107.420868 26.524363,106.836036 C26.7327184,106.334546 26.9381999,105.828745 27.1523031,105.330129 C27.4008927,104.746734 27.6581038,104.169087 27.9138781,103.590002 C28.132292,103.097134 28.3478321,102.602829 28.5705569,102.111397 C28.8363896,101.526565 29.1137179,100.946044 29.3881722,100.364086 C29.6123339,99.8870235 29.8336218,99.4085245 30.0620942,98.9343364 C30.349481,98.3423196 30.6469263,97.7560506 30.9414978,97.1683446 C31.1699703,96.7113996 31.3955689,96.2501438 31.6283522,95.7975096 C31.9516623,95.1681326 32.285031,94.5473771 32.6169627,93.9251848 C32.8339398,93.5185325 33.0437321,93.1090063 33.263583,92.7052279 C33.7895008,91.7396083 34.3269141,90.7811734 34.8743859,89.8299231 C35.1042953,89.4275816 35.3413894,89.0338617 35.5741727,88.6343941 C35.9563971,87.9849 36.3357477,87.3339689 36.7265937,86.6902225 C36.9953003,86.24621 37.2740655,85.810819 37.547083,85.3696803 C37.8861994,84.8236454 38.2224419,84.2776105 38.567306,83.7373234 C38.8661883,83.2688829 39.1751291,82.8076271 39.4797591,82.3434975 C39.8116908,81.8376967 40.1393117,81.3304591 40.4769912,80.8304061 C40.7945536,80.3590918 41.1193007,79.8935252 41.4426108,79.4265217 C41.7774164,78.9394011 42.110785,78.4537174 42.4513384,77.9723445 C42.786144,77.4995933 43.1281343,77.0325898 43.4672507,76.5641493 C43.8063671,76.0957089 44.1454835,75.6272684 44.4903476,75.1645757 C44.8395225,74.6918244 45.1973191,74.2262578 45.5522418,73.7606913 C45.8971059,73.3080571 46.24197,72.853986 46.591145,72.4070995 C46.9561262,71.9386591 47.3268551,71.4759663 47.6961471,71.0132736 C48.0481959,70.5735719 48.4002448,70.1338701 48.7566044,69.6984791 C49.1316441,69.2372233 49.5138685,68.7831522 49.894656,68.3290811 C50.2567634,67.8980009 50.6203076,67.4654838 50.9852889,67.0387144 C51.373261,66.5875172 51.764107,66.1391938 52.15639,65.6937443 C52.5271189,65.2741596 52.8978479,64.8545749 53.2714507,64.4378641 C53.6709183,63.9938515 54.0746967,63.5512759 54.4784752,63.113011 C54.8563888,62.7034849 55.2357393,62.2953956 55.6179638,61.8901803 C56.0289269,61.4533524 56.4442008,61.0179614 56.8623485,60.5854443 C57.2445729,60.1888505 57.6296712,59.7951306 58.0176434,59.4028477 C58.4429758,58.9717675 58.8711821,58.5421243 59.3022623,58.1153549 C59.6902345,57.7331305 60.0810805,57.3509061 60.4733634,56.9715555 C60.9130652,56.5462231 61.3542039,56.1223276 61.7996534,55.7027429 C62.1919364,55.3320139 62.5870932,54.9655958 62.98225,54.6006146 C63.4363211,54.1824668 63.8889553,53.764319 64.3487742,53.351919 C64.7453679,52.9926855 65.1477094,52.6391998 65.548614,52.285714 C66.0156175,51.873314 66.482621,51.4623509 66.9553723,51.0571355 C67.353403,50.7151453 67.7557445,50.3774658 68.158086,50.0383494 C68.6423327,49.633134 69.1251425,49.2250448 69.6137,48.8241403 C70.0117307,48.4979563 70.4140722,48.17752 70.8164137,47.8556468 C71.3179036,47.4533053 71.8179566,47.0495269 72.3251943,46.6543701 C72.7174772,46.3468662 73.1155079,46.046547 73.5121017,45.743354 C74.0351456,45.3424494 74.5567526,44.9401079 75.0855443,44.546388 C75.4663318,44.264749 75.8499932,43.9888577 76.2322176,43.7100925 C76.7868741,43.3063141 77.3386567,42.8982248 77.8990609,42.5016311 C78.2410512,42.2587892 78.5887892,42.0231321 78.9350903,41.7831641 C79.5414764,41.3607055 80.1464255,40.93681 80.7599963,40.5229731 C80.9913427,40.3677842 81.2269998,40.2169062 81.4597831,40.0617173 C83.896823,38.4394189 86.3841556,36.8860934 88.918907,35.4074884 C89.1042715,35.2982814 89.2867621,35.1862006 89.4735635,35.0784305 C90.1532333,34.6861476 90.8429615,34.3039231 91.5298159,33.9216987 C91.8574369,33.7392081 92.1821839,33.5524067 92.5112418,33.37279 C93.1578621,33.0178673 93.811667,32.675877 94.464035,32.3324498 C94.8405117,32.1341529 95.2155514,31.9315453 95.593465,31.7361222 C96.2257159,31.4085013 96.8651515,31.0938128 97.5031502,30.7748135 C97.9083655,30.5722058 98.312144,30.3681612 98.7187963,30.1698643 C99.3467364,29.8637974 99.9804242,29.567789 100.614112,29.2703437 C101.036571,29.0720468 101.457592,28.872313 101.882925,28.67689 C102.510865,28.3909401 103.143116,28.110738 103.775367,27.8319728 C104.212195,27.6394237 104.650459,27.4454376 105.090161,27.2571993 C105.720975,26.9856188 106.354663,26.7240968 106.991225,26.4611379 C107.436674,26.2772103 107.882124,26.0932828 108.330447,25.9122291 C108.964135,25.6578918 109.602134,25.4107392 110.241569,25.1664604 C110.698514,24.9897176 111.156896,24.8129747 111.616715,24.6405426 C112.253277,24.4034485 112.894149,24.1721022 113.536459,23.9421927 C114.000588,23.7769453 114.463281,23.6116979 114.928848,23.4507613 C115.575468,23.2265997 116.224962,23.0081857 116.875893,22.7926456 C117.34146,22.6388937 117.808463,22.4865787 118.276904,22.3371376 C118.932146,22.1273452 119.588824,21.9233006 120.248377,21.7221299 C120.718254,21.5784365 121.188132,21.4404908 121.659446,21.3011082 C122.32331,21.1056852 122.98861,20.9160099 123.656784,20.7306455 C124.128099,20.5998845 124.599413,20.4734343 125.072164,20.3469841 C125.744649,20.1659304 126.420008,19.9891876 127.098241,19.8196294 C127.569555,19.7003639 128.042306,19.5868461 128.516495,19.4718914 C129.199038,19.306644 129.883019,19.1442704 130.569873,18.9890816 C131.039751,18.8827485 131.513939,18.7807262 131.985253,18.6801408 C132.680729,18.5292627 133.377642,18.3812585 134.078866,18.240439 C134.540122,18.1484752 135.005688,18.0608223 135.469818,17.9731693 C136.183974,17.8366606 136.899567,17.7001519 137.616597,17.5751386 C138.069231,17.4961072 138.523302,17.4242605 138.975937,17.34954 C139.708773,17.2274006 140.441609,17.1066982 141.178756,16.9960542 C141.61271,16.9313922 142.049538,16.8739149 142.484929,16.8121267 C143.247941,16.7057936 144.010953,16.5980235 144.778276,16.500312 C145.166248,16.4528932 145.555657,16.4126591 145.945066,16.3681141 C146.761244,16.2718396 147.577423,16.1770019 148.396475,16.0936597 C148.702542,16.0649211 149.010046,16.0404932 149.316113,16.0117545 C150.222818,15.9284123 151.129524,15.8436332 152.04054,15.7746604 C155.717654,15.500206 159.430691,15.3565127 163.176777,15.3565127 C191.951379,15.3565127 219.842266,23.631815 243.831878,39.2800253 C244.172431,39.5013131 244.531664,39.6665605 244.892335,39.828934 C245.074825,39.9711905 245.234325,40.1350009 245.432622,40.262888 C250.535174,43.5822054 253.952203,48.9290364 255.060079,55.3162076 C256.336076,62.6934263 254.459441,70.353721 249.902923,76.3385507 C241.305748,87.6299773 223.938965,87.4374282 212.785484,80.7858611 C212.296926,80.4927266 211.788251,80.2728757 211.269518,80.1004437 C196.711941,71.65702 180.096674,67.1910294 163.176777,67.1910294 C158.98093,67.1910294 154.85693,67.4913486 150.801903,68.0143926 C150.800466,68.0143926 150.800466,68.0143926 150.799029,68.0158295 C134.689563,70.0993837 119.827355,76.1847988 107.23263,85.2518517 C107.137792,85.3208245 107.040081,85.3883604 106.943806,85.4573333 C105.933641,86.1901695 104.94072,86.9459968 103.960731,87.7176303 C103.785425,87.8555759 103.610119,87.9906477 103.43625,88.1300303 C102.513739,88.8657405 101.607033,89.6172569 100.711824,90.3860166 C100.49341,90.5742549 100.276433,90.7624932 100.059456,90.9536054 C99.2059169,91.6993741 98.3653105,92.4595122 97.5390735,93.2354565 C97.2976686,93.4610551 97.0591376,93.6909645 96.8206066,93.919437 C96.0216713,94.6838859 95.2342316,95.4598302 94.464035,96.2501438 C94.2183193,96.5016073 93.9783513,96.7588184 93.7355095,97.0145927 C92.9825561,97.8034694 92.2353505,98.6024046 91.5082619,99.4185831 C91.2740417,99.681542 91.0470061,99.9502486 90.8170967,100.216081 C90.094319,101.045192 89.375852,101.878614 88.6818129,102.732153 C88.4863899,102.973558 88.2995885,103.223584 88.1056024,103.466426 C87.3914463,104.361636 86.6816009,105.261156 85.9990573,106.182231 C85.9358322,106.269884 85.875481,106.358974 85.810819,106.446627 C83.6324272,109.411021 81.6293413,112.510488 79.7943767,115.719161 C79.5342917,116.176106 79.2612743,116.627304 79.006937,117.088559 C78.6074693,117.814211 78.2338665,118.554232 77.854516,119.289942 C77.5470121,119.88627 77.2323236,120.476849 76.9377521,121.078925 C76.5957619,121.774401 76.2767625,122.481372 75.9520155,123.18547 C75.6473855,123.846459 75.3413186,124.504575 75.0510579,125.174186 C74.7550495,125.859604 74.4748474,126.553643 74.1932084,127.247682 C73.9072585,127.953217 73.6227456,128.660188 73.352602,129.372907 C73.0953909,130.055451 72.8511121,130.742305 72.6082703,131.432034 C72.3481852,132.174928 72.092411,132.920697 71.8495692,133.672214 C71.6297183,134.351883 71.4170521,135.035864 71.2130074,135.721281 C70.9802242,136.498663 70.7574994,137.280355 70.5448332,138.067794 C70.3609056,138.74459 70.179852,139.422823 70.0117307,140.106804 C69.81056,140.918671 69.6251955,141.737724 69.4441418,142.558213 C69.2961376,143.229261 69.1481334,143.898872 69.0144986,144.575668 C68.8463773,145.430644 68.6983731,146.292804 68.5532428,147.156401 C68.4425989,147.811643 68.3262072,148.464011 68.2284957,149.123564 C68.0934239,150.037454 67.9856539,150.959965 67.8764469,151.88104 C67.8046002,152.503232 67.7198211,153.119677 67.6594699,153.744743 C67.5574476,154.776462 67.4899117,155.815365 67.4209389,156.857142 C67.3878894,157.381623 67.3361598,157.90323 67.310295,158.430585 C67.2341375,160.00259 67.1895925,161.584655 67.1895925,163.17534 C67.1895925,164.737288 67.2341375,166.289176 67.308858,167.83388 C67.3332859,168.366983 67.3821417,168.894337 67.4166281,169.426003 C67.4812901,170.427546 67.548826,171.430526 67.6451006,172.424884 C67.7068887,173.06432 67.7859201,173.700881 67.8606406,174.337443 C67.961226,175.209662 68.0675591,176.079007 68.1925724,176.945478 C68.2917208,177.630896 68.4038017,178.313439 68.5173194,178.994546 C68.6495174,179.793481 68.7917738,180.590979 68.9440888,181.381293 C69.0820345,182.095449 69.2257279,182.808168 69.3794798,183.516577 C69.5418533,184.259472 69.7157223,184.998056 69.8939021,185.735203 C70.070645,186.466602 70.2473879,187.198002 70.4413739,187.922216 C70.6267384,188.620566 70.830783,189.307421 71.0319538,189.998586 C71.2489308,190.742917 71.461597,191.490123 71.6958172,192.225833 C71.9012988,192.872454 72.1283343,193.509015 72.3467483,194.148451 C72.6068333,194.908589 72.8568598,195.673038 73.135625,196.424554 L73.135625,196.425991 C86.6887856,233.013202 121.9339,259.161088 163.176777,259.161088 C180.096674,259.161088 196.711941,254.695098 211.269518,246.251674 C211.788251,246.079242 212.296926,245.859391 212.785484,245.566257 C223.938965,238.91469 241.305748,238.722141 249.902923,250.013567 C254.459441,255.998397 256.336076,263.658692 255.060079,271.03591 M205.472927,232.061952 C204.964252,232.230073 204.464199,232.448487 203.984263,232.730126 C191.665429,239.975147 177.553301,243.804576 163.176777,243.804576 C129.867213,243.804576 101.213314,223.5007 88.9347133,194.618328 C86.9014518,189.837649 85.3222615,184.819876 84.2388133,179.622486 C84.2273178,179.565009 84.2115116,179.508968 84.2000161,179.451491 C83.9557373,178.263147 83.745945,177.066181 83.5548328,175.860593 C83.5332788,175.729832 83.5045401,175.601945 83.484423,175.471184 C83.3134279,174.360434 83.179793,173.236752 83.0547798,172.113069 C83.028915,171.88316 82.9901177,171.657561 82.9671268,171.427652 C82.8607937,170.37869 82.7918209,169.321107 82.724285,168.262087 C82.7056048,167.948835 82.6696815,167.639894 82.6538752,167.326643 C82.5834654,165.951497 82.5475421,164.567729 82.5475421,163.17534 C82.5475421,161.84474 82.5849024,160.519887 82.6495644,159.203655 C82.6696815,158.766827 82.7113526,158.335747 82.7400912,157.901793 C82.7961317,157.025263 82.855046,156.151608 82.9383881,155.283699 C82.9901177,154.764966 83.0590906,154.251981 83.1194418,153.734685 C83.2099686,152.95874 83.3019324,152.182796 83.4154502,151.414036 C83.4959185,150.869439 83.5893192,150.329151 83.679846,149.788864 C83.8034223,149.056028 83.9298725,148.326066 84.072129,147.600414 C84.1813359,147.047194 84.3006015,146.498286 84.419867,145.949377 C84.5736189,145.246716 84.7331186,144.546929 84.9055506,143.850016 C85.0420594,143.296797 85.1857527,142.743577 85.3337569,142.193232 C85.5176845,141.514999 85.7102336,140.841077 85.9099674,140.170029 C86.0752148,139.618246 86.2418992,139.066463 86.418642,138.518992 C86.6313083,137.859439 86.8554699,137.207071 87.0839424,136.55614 C87.2750546,136.011542 87.4647299,135.466944 87.6673376,134.928094 C87.9087425,134.284347 88.1659537,133.649223 88.4231648,133.014098 C88.6401419,132.480995 88.8499342,131.945019 89.0769698,131.417664 C89.3485503,130.78685 89.637374,130.168969 89.9247608,129.545339 C90.1632918,129.028043 90.3932012,128.506436 90.6432277,127.993451 C90.9507316,127.364074 91.2797894,126.744755 91.6016626,126.124 C91.9106034,125.530546 92.2137965,124.937092 92.5371066,124.35226 C93.0558397,123.412505 93.5875053,122.479935 94.1435987,121.563172 C94.4913367,120.988398 94.8606287,120.427994 95.2227361,119.863279 C95.5259291,119.390527 95.8205006,118.912028 96.1323152,118.445025 C96.5188505,117.867378 96.9255028,117.304099 97.3264073,116.736511 C97.6339112,116.299683 97.9385412,115.861418 98.2546666,115.431775 C98.6756883,114.859875 99.1125162,114.303781 99.5464702,113.743377 C99.8640326,113.336725 100.180158,112.928636 100.504905,112.526294 C100.960413,111.963016 101.427417,111.411233 101.898731,110.860888 C102.220604,110.485848 102.542477,110.110808 102.870098,109.740079 C103.364404,109.183986 103.865894,108.635077 104.374568,108.093353 C104.695004,107.751363 105.019751,107.412246 105.345935,107.076004 C105.879038,106.525658 106.419325,105.982497 106.966797,105.449395 C107.281485,105.143328 107.600485,104.841572 107.919484,104.541252 C108.500005,103.995218 109.083401,103.452057 109.679728,102.923265 C109.969989,102.664617 110.26456,102.413153 110.559132,102.160253 C111.200004,101.607033 111.843751,101.056688 112.501866,100.523585 C112.736087,100.33391 112.974618,100.152856 113.210275,99.9660549 C113.943111,99.3869705 114.680258,98.8093231 115.433211,98.2546666 C115.497873,98.2058109 115.566846,98.159829 115.632945,98.1109732 C119.345982,95.3937312 123.297551,92.9825561 127.453164,90.920556 C127.502019,90.8961281 127.549438,90.8702633 127.596857,90.8472723 C128.52799,90.3860166 129.472056,89.9520625 130.421869,89.528167 C130.598612,89.4491356 130.771044,89.3672304 130.947787,89.289636 C131.850181,88.8944792 132.765508,88.5208763 133.685146,88.1573321 C133.912181,88.0682422 134.139217,87.9762784 134.36769,87.8886254 C135.270084,87.5423244 136.182537,87.2147034 137.099301,86.9000149 C137.349327,86.8137989 137.597917,86.7290198 137.84938,86.6456776 C138.766144,86.3424845 139.690093,86.0536608 140.619789,85.7820803 C140.872689,85.7073598 141.12559,85.6383869 141.37849,85.5665402 C142.322556,85.3007075 143.273806,85.0478071 144.232241,84.8164607 C144.46215,84.7618572 144.693497,84.7101276 144.924843,84.6569611 C145.917764,84.4256147 146.916433,84.2072008 147.922287,84.0146516 C148.091845,83.9816021 148.261403,83.9557373 148.429525,83.9226878 C149.507225,83.724391 150.590673,83.5375896 151.68418,83.3795268 C155.440325,82.8421135 159.274065,82.5475421 163.176777,82.5475421 C177.553301,82.5475421 191.665429,86.376971 203.984263,93.6219917 C204.464199,93.9036308 204.964252,94.1220447 205.472927,94.290166 C222.668715,104.210758 248.356782,103.720763 262.122609,85.6412608 C269.255549,76.2710148 272.196953,64.2639951 270.19243,52.6952402 C268.347407,42.0533077 262.530698,33.066723 253.809947,27.3893972 C253.447839,27.15374 253.071363,26.9626278 252.689138,26.7930696 C252.528202,26.6709302 252.39313,26.5301107 252.222135,26.4194668 C225.732258,9.13602577 194.940201,0 163.176777,0 C158.874597,0 154.614088,0.169558201 150.39525,0.498616065 C149.130748,0.596327571 147.870557,0.708408416 146.614677,0.834858599 C145.986737,0.899520625 145.361671,0.97855199 144.736605,1.04752482 C144.028196,1.12799312 143.319788,1.20271368 142.61569,1.29036665 C141.961885,1.37370881 141.313828,1.46998339 140.662897,1.56051022 C139.990412,1.65247399 139.317927,1.74156389 138.648316,1.84214927 C137.991637,1.94129771 137.337832,2.05481549 136.68259,2.16258553 C136.024474,2.27035557 135.364922,2.37381481 134.70968,2.48876953 C134.053001,2.60516117 133.399196,2.73304829 132.745391,2.85662461 C132.098771,2.98020092 131.449277,3.09946644 130.804093,3.23022742 C130.151725,3.36242534 129.503668,3.50324486 128.854174,3.64406439 C128.211865,3.78201004 127.568118,3.91708183 126.928683,4.06364909 C126.282062,4.21165328 125.638316,4.36684214 124.99457,4.522031 C124.359445,4.67578293 123.722883,4.82666099 123.090632,4.98903452 C122.448323,5.15140805 121.808887,5.32096625 121.169452,5.49196139 C120.540075,5.65864572 119.912134,5.82820392 119.285631,6.00350986 C118.650506,6.18025273 118.018256,6.36418027 117.386005,6.54954474 C116.762375,6.73203535 116.138746,6.91596289 115.517991,7.10563816 C114.887177,7.29962424 114.260673,7.49792112 113.63417,7.696218 C113.017726,7.89451488 112.402718,8.09424869 111.78771,8.29685637 C111.165518,8.50521179 110.544762,8.71500414 109.926881,8.93054423 C109.314747,9.14177351 108.70405,9.3573136 108.096227,9.57572755 C107.479782,9.79701537 106.866212,10.022614 106.254078,10.2510865 C105.650565,10.4766851 105.04849,10.7065945 104.447852,10.9379409 C103.838592,11.1735981 103.230769,11.4106921 102.62582,11.653534 C102.026618,11.8949389 101.430291,12.1406546 100.833963,12.3878072 C100.234762,12.6363968 99.636997,12.8864233 99.0406695,13.1407606 C98.4472158,13.3965348 97.8580729,13.6580568 97.2660561,13.9181418 C96.6754763,14.1811007 96.0834595,14.4440596 95.4957535,14.7113293 C94.9066106,14.9829098 94.3217785,15.2588011 93.7355095,15.5346925 C93.1578621,15.8091468 92.5773408,16.0807273 92.0025672,16.3609295 C91.4162982,16.6468793 90.8357769,16.9385769 90.2538186,17.2302745 C89.6833559,17.5162243 89.1114562,17.8021742 88.5453042,18.0938717 C87.9647829,18.3941909 87.3900094,18.7031317 86.8152358,19.0077617 C86.2562685,19.3037701 85.6958643,19.5997785 85.1426447,19.9015346 C84.5563757,20.2219709 83.9772913,20.5524657 83.39677,20.8786497 C82.8593568,21.1804058 82.3205065,21.479288 81.7874041,21.7867919 C81.1925134,22.1302191 80.6062444,22.4837048 80.0171015,22.8357536 C79.5026791,23.1403836 78.9868199,23.4392659 78.4767083,23.7510805 C77.8458944,24.1361788 77.223702,24.5313356 76.5986357,24.9250555 C76.1402538,25.2138792 75.6761242,25.4955183 75.2206161,25.7886528 C74.157285,26.4711964 73.1040125,27.1652355 72.0593615,27.87077 C71.6512723,28.1466613 71.2518047,28.4311743 70.8480262,28.7085025 C70.199969,29.1568259 69.547601,29.6008385 68.9052916,30.0577834 C68.4354142,30.3911521 67.9712846,30.7374532 67.504281,31.0765696 C66.9381291,31.4875327 66.3691032,31.8956219 65.8072621,32.3137697 C65.3244523,32.6730032 64.8488272,33.0437321 64.3703282,33.4087133 C63.8329149,33.8182395 63.2940647,34.2248918 62.7623991,34.6416026 C62.2824632,35.0180793 61.809712,35.4017406 61.3340868,35.7825281 C60.8124798,36.2006759 60.2894359,36.6159498 59.7735766,37.0398453 C59.2993884,37.4306913 58.830948,37.8258481 58.3610706,38.2224419 C57.852396,38.6477743 57.3437214,39.0745437 56.8407945,39.5070608 C56.3752279,39.9079654 55.9154091,40.3160546 55.4555902,40.72127 C54.9569742,41.1595348 54.4583581,41.5977996 53.9669267,42.0418122 C53.5099817,42.4542123 53.0587845,42.8709231 52.6075872,43.2876339 C52.1219036,43.7359573 51.6362199,44.1857176 51.1548471,44.6397887 C50.7065237,45.0636842 50.2625111,45.4933275 49.8170616,45.9229707 C49.3443103,46.3799157 48.872996,46.8397345 48.4059925,47.3024272 C47.9662907,47.7378182 47.5308997,48.1760831 47.0955088,48.6172218 C46.632816,49.0856622 46.1729972,49.5555396 45.7160522,50.0297278 C45.2878459,50.4751773 44.8625135,50.9206268 44.4400549,51.3703871 C43.9845469,51.8531969 43.5333496,52.3374437 43.0850262,52.8260012 C42.6711893,53.2757615 42.2587892,53.7298326 41.8492631,54.1839037 C41.4038136,54.6796459 40.9626749,55.1768251 40.5229731,55.678315 C40.1191947,56.1381338 39.7182901,56.5993896 39.3188225,57.0635193 C38.8863054,57.5678831 38.4580991,58.0765577 38.0298928,58.5866692 C37.6376098,59.0565466 37.2453268,59.526424 36.8573547,60.0006122 C36.4348961,60.5179084 36.0167484,61.0380785 35.5986006,61.5611224 C35.220687,62.0367475 34.8398995,62.5123726 34.4662967,62.9923086 C34.0510228,63.5239741 33.6429335,64.0613874 33.2334074,64.5973637 C32.8698631,65.0772997 32.503445,65.5557987 32.1442115,66.0400454 C31.7361222,66.5903911 31.3337808,67.1450476 30.9314393,67.701141 C30.5837013,68.1810769 30.2359632,68.658139 29.893973,69.1409488 C29.4887576,69.7142854 29.0921639,70.2919328 28.6955701,70.8681433 C28.3665122,71.3452054 28.0360174,71.8193936 27.7127073,72.2993295 C27.3132397,72.8927832 26.9223937,73.4934216 26.5301107,74.0940599 C26.2211699,74.5668112 25.9064814,75.0381255 25.6018514,75.5151876 C25.1995099,76.1431277 24.8086639,76.7811263 24.414944,77.4148142 C24.133305,77.8688853 23.8473551,78.3186456 23.5685899,78.7755906 C23.1288882,79.5012422 22.7006818,80.2369524 22.2710386,80.9712256 C22.0526247,81.3419545 21.828463,81.7112466 21.6129229,82.0862863 C20.9749242,83.1955993 20.348421,84.3135339 19.7362872,85.4372162 C19.6084001,85.6728733 19.4876976,85.9128413 19.3598105,86.1499354 C18.8784377,87.0451452 18.3985017,87.9432289 17.9343721,88.8484973 C17.7130843,89.2795774 17.501855,89.7135315 17.283441,90.1460486 C16.9213337,90.8673894 16.5592263,91.5858564 16.2057406,92.3129449 C15.9743942,92.7928808 15.7502325,93.2800014 15.523197,93.7628112 C15.2013238,94.4453548 14.8765767,95.1278984 14.5633251,95.8161898 C14.3291049,96.3306121 14.1049432,96.8493453 13.8750338,97.3680784 C13.5804623,98.0333788 13.284454,98.6972423 12.9985041,99.3668535 C12.7714686,99.8999559 12.5516177,100.438806 12.3303298,100.974783 C12.0573124,101.635772 11.782858,102.295325 11.5184622,102.959188 C11.2986113,103.510971 11.087382,104.065627 10.8732789,104.620284 C10.6203785,105.276963 10.3660412,105.935078 10.1217624,106.596068 C9.91340702,107.157909 9.71079934,107.724061 9.50819166,108.287339 C9.27109756,108.948329 9.0354404,109.609318 8.80696791,110.274619 C8.6115449,110.846518 8.42043269,111.419855 8.23075741,111.993192 C8.01090653,112.657055 7.79249257,113.323792 7.57982635,113.991967 C7.39733575,114.572488 7.21915594,115.155883 7.04097614,115.737841 C6.83693152,116.407453 6.63576078,117.077064 6.44033777,117.750986 C6.27077957,118.337255 6.10553217,118.924961 5.94028477,119.514104 C5.75204643,120.189463 5.56811889,120.869132 5.38850215,121.550239 C5.23331329,122.139382 5.08099829,122.731399 4.93155717,123.323416 C4.7591251,124.01027 4.59100383,124.695687 4.42719336,125.386853 C4.28493691,125.981743 4.14555432,126.576634 4.01048253,127.174398 C3.85385674,127.865564 3.70441561,128.559603 3.55641142,129.252205 C3.42996123,129.852843 3.30207412,130.453482 3.18137167,131.055557 C3.04198908,131.755344 2.90835423,132.459441 2.77759324,133.162102 C2.6655124,133.764177 2.55199462,134.366253 2.44709844,134.971202 C2.32208519,135.681047 2.20713048,136.393766 2.09217577,137.106486 C1.99446426,137.708561 1.89531582,138.310636 1.80622592,138.915585 C1.69701894,139.638363 1.59930744,140.364015 1.500159,141.089666 C1.41825377,141.688868 1.3349116,142.286632 1.26019104,142.888708 C1.16822727,143.631602 1.08632203,144.375934 1.0044168,145.121703 C0.938317841,145.710846 0.869345013,146.298552 0.810430723,146.890569 C0.734273226,147.662202 0.6696112,148.435272 0.60351224,149.208343 C0.556093422,149.780243 0.501489933,150.350705 0.458381916,150.922605 C0.398030692,151.737347 0.352048807,152.553525 0.303193054,153.369704 C0.271580508,153.907117 0.232783293,154.441656 0.205481549,154.980506 C0.159499664,155.888649 0.132197919,156.801102 0.100585373,157.713555 C0.0862160344,158.164752 0.0632250919,158.614512 0.0517296206,159.067146 C0.0186801408,160.432234 0,161.801632 0,163.17534 C0,164.685558 0.0244278764,166.190028 0.0646620258,167.690187 C0.0790313648,168.165812 0.102022307,168.64 0.119265514,169.115625 C0.156625796,170.14447 0.196859945,171.171878 0.252900367,172.196412 C0.283075979,172.739573 0.321873195,173.281297 0.356359609,173.823021 C0.419584701,174.785766 0.48568366,175.745638 0.564715025,176.704073 C0.609259976,177.245797 0.659552663,177.787521 0.70984535,178.329245 C0.798935252,179.296302 0.896646757,180.261922 1.00297987,181.224667 C1.06045722,181.736216 1.11793458,182.249201 1.17972274,182.759313 C1.30186212,183.775225 1.43549697,184.788263 1.57631649,185.798428 C1.63810465,186.243877 1.69845588,186.692201 1.76455484,187.13765 C1.9326761,188.280013 2.11660364,189.416627 2.30915279,190.550368 C2.36088241,190.857872 2.40830123,191.166813 2.46146778,191.47288 C2.98451172,194.445896 3.5851501,197.393048 4.26625677,200.310023 L4.26625677,200.31146 C21.1214915,272.454164 85.9717556,326.352118 163.176777,326.352118 C194.940201,326.352118 225.732258,317.216092 252.222135,299.932651 C252.39313,299.822007 252.528202,299.681188 252.689138,299.559048 C253.071363,299.38949 253.447839,299.198378 253.809947,298.962721 C262.530698,293.285395 268.347407,284.29881 270.19243,273.656878 C272.196953,262.088123 269.255549,250.081103 262.122609,240.710857 C248.356782,222.631355 222.668715,222.14136 205.472927,232.061952" id="Fill-6"></path>
                </g>
            </g>
        </g>
    </g>
</svg>