<svg xmlns="http://www.w3.org/2000/svg" xmlns:xlink="http://www.w3.org/1999/xlink" width="369" height="300" viewBox="0 0 369 300">
    <defs>
        <path id="a" d="M167.87 299.907H0V.002h167.87z"/>
    </defs>
    <g fill="none" fill-rule="evenodd">
        <g transform="translate(98)">
            <g transform="translate(.556)">
                <mask id="b" fill="#fff">
                    <use xlink:href="#a"/>
                </mask>
                <path fill="#EFF4F7" d="M162.405 5.49A18.538 18.538 0 0 0 149.218.001H18.653A18.53 18.53 0 0 0 5.466 5.489C1.819 9.15 0 13.948 0 18.746v262.419c0 4.793 1.82 9.587 5.466 13.252a18.535 18.535 0 0 0 13.187 5.492h130.565c4.77 0 9.55-1.832 13.187-5.492a18.744 18.744 0 0 0 5.466-13.252V18.746c0-4.798-1.824-9.597-5.466-13.257" mask="url(#b)"/>
            </g>
            <path fill="#FFF" d="M8.95 252.258h149.684V46.248H8.949z"/>
            <path stroke="#5E5C5C" stroke-width="2" d="M66.305 23.824h37.77"/>
            <path stroke="#5E5C5C" stroke-linecap="round" stroke-width="4" d="M74.699 276.083h18.185"/>
            <path stroke="#474545" stroke-width="2" d="M80.294 239.645h9.793"/>
            <path fill="#F0F2F4" fill-rule="nonzero" d="M129.437 66.065H42.794c-2.989 0-5.415-2.179-5.415-4.874s2.426-4.873 5.415-4.873h86.643c2.989 0 5.415 2.178 5.415 4.873 0 2.695-2.426 4.874-5.415 4.874z"/>
            <path fill="#7AD3FF" d="M49.253 105.119c-6.558 0-11.874-5.349-11.874-11.946 0-6.597 5.316-11.946 11.874-11.946 6.558 0 11.874 5.349 11.874 11.946 0 6.597-5.316 11.946-11.874 11.946zm36.321 0c-6.558 0-11.874-5.349-11.874-11.946 0-6.597 5.316-11.946 11.874-11.946 6.558 0 11.874 5.349 11.874 11.946 0 6.597-5.316 11.946-11.874 11.946zm36.32 0c-6.557 0-11.873-5.349-11.873-11.946 0-6.597 5.316-11.946 11.874-11.946 6.558 0 11.874 5.349 11.874 11.946 0 6.597-5.316 11.946-11.874 11.946zm-72.64 32.323c-6.559 0-11.875-5.348-11.875-11.946 0-6.597 5.316-11.945 11.874-11.945 6.558 0 11.874 5.348 11.874 11.945 0 6.598-5.316 11.946-11.874 11.946zm36.32 0c-6.558 0-11.874-5.348-11.874-11.946 0-6.597 5.316-11.945 11.874-11.945 6.558 0 11.874 5.348 11.874 11.945 0 6.598-5.316 11.946-11.874 11.946zm36.32 0c-6.557 0-11.873-5.348-11.873-11.946 0-6.597 5.316-11.945 11.874-11.945 6.558 0 11.874 5.348 11.874 11.945 0 6.598-5.316 11.946-11.874 11.946zm-72.64 30.918c-6.559 0-11.875-5.348-11.875-11.946 0-6.597 5.316-11.945 11.874-11.945 6.558 0 11.874 5.348 11.874 11.945 0 6.598-5.316 11.946-11.874 11.946zm36.32 0c-6.558 0-11.874-5.348-11.874-11.946 0-6.597 5.316-11.945 11.874-11.945 6.558 0 11.874 5.348 11.874 11.945 0 6.598-5.316 11.946-11.874 11.946zm36.32 0c-6.557 0-11.873-5.348-11.873-11.946 0-6.597 5.316-11.945 11.874-11.945 6.558 0 11.874 5.348 11.874 11.945 0 6.598-5.316 11.946-11.874 11.946zm-72.64 30.918c-6.559 0-11.875-5.348-11.875-11.946 0-6.597 5.316-11.945 11.874-11.945 6.558 0 11.874 5.348 11.874 11.945 0 6.598-5.316 11.946-11.874 11.946zm36.32 0c-6.558 0-11.874-5.348-11.874-11.946 0-6.597 5.316-11.945 11.874-11.945 6.558 0 11.874 5.348 11.874 11.945 0 6.598-5.316 11.946-11.874 11.946zm36.32 0c-6.557 0-11.873-5.348-11.873-11.946 0-6.597 5.316-11.945 11.874-11.945 6.558 0 11.874 5.348 11.874 11.945 0 6.598-5.316 11.946-11.874 11.946z"/>
            <circle cx="85.574" cy="229.061" r="14.621" fill="#171fc9"/>
        </g>
        <g stroke="#DEE3E7" stroke-width="2">
            <path d="M320.578 252.347h-28.16M368.231 229.603h-57.4M45.487 57.4h28.16M0 80.144h57.4"/>
        </g>
    </g>
</svg>
