<svg xmlns="http://www.w3.org/2000/svg" xmlns:xlink="http://www.w3.org/1999/xlink" width="392" height="229" viewBox="0 0 392 229">
    <defs>
        <path id="a" d="M85.61 11.522c-8.739 14.575-24.64 24.323-42.805 24.323S8.74 26.099 0 11.527V0h85.61v11.522z"/>
    </defs>
    <g fill="none" fill-rule="evenodd">
        <path fill="#EFF4F7" d="M86 199h228V35H86z"/>
        <path fill="#FFF" d="M100 186h200V50H100z"/>
        <path fill="#D8DFE3" d="M314 35.625H86v-28.5a7.09 7.09 0 0 1 2.088-5.037A7.097 7.097 0 0 1 93.125 0h213.75c1.824 0 3.644.695 5.037 2.088A7.09 7.09 0 0 1 314 7.125v28.5zM314 199.5H86c0 1.824.695 3.644 2.088 5.037a7.097 7.097 0 0 0 5.037 2.088h213.75a7.097 7.097 0 0 0 5.037-2.088A7.097 7.097 0 0 0 314 199.5"/>
        <path stroke="#FFF" stroke-width="2" d="M100.25 17.813h7.125M114.5 17.813h7.125M128.75 17.813h7.125"/>
        <path fill="#BEEFFF" d="M107.375 178.125h185.25V57h-185.25z"/>
        <path stroke="#FFF" stroke-width="2" d="M274.813 99.75v7.125M274.813 114v7.125M274.813 128.25v7.125M125.188 99.75v7.125M125.188 114v7.125M125.188 128.25v7.125"/>
        <path fill="#4BA2F2" stroke="#4BA2F2" stroke-width=".5" d="M185.75 228h28.5v-28.5h-28.5z"/>
        <path fill="#7AD3FF" d="M224.938 188.813a10.65 10.65 0 0 1-3.132 7.556 10.65 10.65 0 0 1-7.556 3.131h-28.5a10.65 10.65 0 0 1-7.556-3.131 10.65 10.65 0 0 1-3.131-7.556v-10.688h49.875v10.688z"/>
        <path fill="#4BA2F2" stroke="#4BA2F2" stroke-width=".5" d="M260.563 124.688c0 33.448-27.115 60.562-60.563 60.562-33.448 0-60.563-27.114-60.563-60.563 0-33.448 27.115-60.562 60.563-60.562 33.448 0 60.563 27.114 60.563 60.563"/>
        <path fill="#FFF" d="M249.875 124.688c0 27.545-22.333 49.874-49.875 49.874s-49.875-22.33-49.875-49.875S172.458 74.814 200 74.814s49.875 22.33 49.875 49.874"/>
        <path stroke="#DEE3E7" stroke-width="2" d="M353 187h-24M392 168h-48M39 23h24M0 42h48"/>
        <g>
            <g transform="translate(157 138.767)">
                <mask id="b" fill="#fff">
                    <use xlink:href="#a"/>
                </mask>
                <path fill="#1A5099" d="M83.477 15.661a14.27 14.27 0 0 0-5.753-5.287L57.074 0H28.538L7.888 10.374A14.28 14.28 0 0 0 2.13 15.66 14.325 14.325 0 0 0 0 23.199v9.062l2.572 1.29a88.554 88.554 0 0 0 19.394 7.065c6.867 1.631 14.08 2.398 20.839 2.398 6.756 0 13.972-.767 20.835-2.398a88.487 88.487 0 0 0 19.394-7.065l2.575-1.29v-9.062a14.33 14.33 0 0 0-2.133-7.538" mask="url(#b)"/>
            </g>
            <path fill="#CFD3D6" d="M212.596 137.283a7.147 7.147 0 0 1-1.548-2.326 7.228 7.228 0 0 1-.543-2.746v-7.782h-21.402v7.782c0 .917-.175 1.85-.542 2.746a7.147 7.147 0 0 1-1.548 2.326l-1.477 1.484c0 7.918 6.389 14.338 14.268 14.338 7.88 0 14.269-6.42 14.269-14.338l-1.477-1.484z"/>
            <path fill="#DFE3E6" d="M212.415 90.25A17.736 17.736 0 0 0 199.805 85a17.73 17.73 0 0 0-12.61 5.248 17.908 17.908 0 0 0-5.225 12.675v7.169h.007c0 9.588 5.94 21.507 17.828 21.507 11.886 0 17.829-11.919 17.829-21.507h.007v-7.17c0-4.587-1.741-9.172-5.226-12.674"/>
        </g>
    </g>
</svg>
