<?xml version="1.0" encoding="UTF-8"?>
<svg width="432px" height="261px" viewBox="0 0 432 261" version="1.1" xmlns="http://www.w3.org/2000/svg" xmlns:xlink="http://www.w3.org/1999/xlink">
    <!-- Generator: Sketch 46.1 (44463) - http://www.bohemiancoding.com/sketch -->
    <title>Page 1</title>
    <desc>Created with Sketch.</desc>
    <defs></defs>
    <g id="After-SIgnup-Process" stroke="none" stroke-width="1" fill="none" fill-rule="evenodd">
        <g id="Copy-Password" transform="translate(-834.000000, -323.000000)">
            <g id="Page-1" transform="translate(834.000000, 323.000000)">
                <polygon id="Fill-1" stroke="#4BA2F2" stroke-width="0.5" fill="#4BA2F2" points="132.137931 260 174.724138 260 174.724138 252.155172 132.137931 252.155172"></polygon>
                <polygon id="Fill-2" stroke="#4BA2F2" stroke-width="0.5" fill="#4BA2F2" points="266.62069 260 308.086207 260 308.086207 252.155172 266.62069 252.155172"></polygon>
                <g id="Group-30">
                    <path d="M338.344828,234.83871 C338.344828,239.12871 336.701616,243.427097 333.419397,246.698065 C330.141379,249.973226 325.833728,251.612903 321.534483,251.612903 L119.810345,251.612903 C115.511099,251.612903 111.203448,249.973226 107.925431,246.698065 C104.643211,243.427097 103,239.12871 103,234.83871 L103,16.7741935 C103,12.4841935 104.643211,8.19 107.925431,4.91064516 C111.203448,1.63967742 115.511099,0 119.810345,0 L321.534483,0 C325.833728,0 330.141379,1.63967742 333.419397,4.91064516 C336.701616,8.19 338.344828,12.4841935 338.344828,16.7741935 L338.344828,234.83871 Z" id="Fill-3" fill="#BEEFFF"></path>
                    <polygon id="Stroke-33" fill="#DEE3E7" fill-rule="nonzero" points="388 200 361 200 361 202 388 202"></polygon>
                    <polygon id="Stroke-34" fill="#DEE3E7" fill-rule="nonzero" points="432 178 378 178 378 180 432 180"></polygon>
                    <polygon id="Stroke-35" fill="#DEE3E7" fill-rule="nonzero" points="44 27 71 27 71 25 44 25"></polygon>
                    <polygon id="Stroke-36" fill="#DEE3E7" fill-rule="nonzero" points="0 48 54 48 54 46 0 46"></polygon>
                    <polygon id="Fill-5" fill="#EFF4F7" points="308.926724 54.516129 308.926724 197.096774 283.711207 222.258065 132.418103 222.258065 132.418103 29.3548387 283.711207 29.3548387"></polygon>
                    <path d="M300.521552,33.5483871 L308.926724,33.5483871" id="Stroke-7" stroke="#4BA2F2" stroke-width="0.5" fill="#4BA2F2"></path>
                    <path d="M300.521552,218.064516 L308.926724,218.064516" id="Stroke-9" stroke="#4BA2F2" stroke-width="0.5" fill="#4BA2F2"></path>
                    <polygon id="Fill-11" fill="#D8DFE3" points="124.012931 96.4516129 140.823276 96.4516129 140.823276 54.516129 124.012931 54.516129"></polygon>
                    <polygon id="Fill-13" fill="#D8DFE3" points="124.012931 197.096774 140.823276 197.096774 140.823276 155.16129 124.012931 155.16129"></polygon>
                    <polygon id="Fill-14" fill="#D8DFE3" points="157.633621 130 182.849138 130 182.849138 104.83871 157.633621 104.83871"></polygon>
                    <polygon id="Fill-15" fill="#D8DFE3" points="191.25431 130 216.469828 130 216.469828 104.83871 191.25431 104.83871"></polygon>
                    <polygon id="Fill-16" fill="#D8DFE3" points="224.875 130 250.090517 130 250.090517 104.83871 224.875 104.83871"></polygon>
                    <polygon id="Fill-17" fill="#D8DFE3" points="258.49569 130 283.711207 130 283.711207 104.83871 258.49569 104.83871"></polygon>
                    <polygon id="Fill-18" fill="#D8DFE3" points="157.633621 163.548387 182.849138 163.548387 182.849138 138.387097 157.633621 138.387097"></polygon>
                    <polygon id="Fill-19" fill="#D8DFE3" points="157.633621 197.096774 182.849138 197.096774 182.849138 171.935484 157.633621 171.935484"></polygon>
                    <polygon id="Fill-20" fill="#D8DFE3" points="191.25431 197.096774 283.711207 197.096774 283.711207 171.935484 191.25431 171.935484"></polygon>
                    <polygon id="Fill-21" fill="#D8DFE3" points="191.25431 163.548387 216.469828 163.548387 216.469828 138.387097 191.25431 138.387097"></polygon>
                    <polygon id="Fill-22" fill="#D8DFE3" points="224.875 163.548387 250.090517 163.548387 250.090517 138.387097 224.875 138.387097"></polygon>
                    <polygon id="Fill-23" fill="#D8DFE3" points="258.49569 163.548387 283.711207 163.548387 283.711207 138.387097 258.49569 138.387097"></polygon>
                    <polygon id="Fill-24" fill="#D8DFE3" points="157.633621 96.4516129 283.711207 96.4516129 283.711207 54.516129 157.633621 54.516129"></polygon>
                    <polygon id="Fill-25" fill="#FFFFFF" points="166.038793 88.0645161 275.306034 88.0645161 275.306034 62.9032258 166.038793 62.9032258"></polygon>
                    <path d="M266.900862,76 L258.49569,76" id="Stroke-26" stroke="#4BA2F2" stroke-width="10"></path>
                    <path d="M250.090517,76 L241.685345,76" id="Stroke-27" stroke="#4BA2F2" stroke-width="10"></path>
                    <path d="M233.280172,76 L224.875,76" id="Stroke-28" stroke="#4BA2F2" stroke-width="10"></path>
                    <path d="M216.469828,76 L208.064655,76" id="Stroke-29" stroke="#4BA2F2" stroke-width="10"></path>
                </g>
            </g>
        </g>
    </g>
</svg>