<?xml version="1.0" encoding="UTF-8"?>
<svg width="392px" height="250px" viewBox="0 0 392 250" version="1.1" xmlns="http://www.w3.org/2000/svg" xmlns:xlink="http://www.w3.org/1999/xlink">
    <!-- Generator: Sketch 47.1 (45422) - http://www.bohemiancoding.com/sketch -->
    <title>Error</title>
    <desc>Created with Sketch.</desc>
    <defs></defs>
    <g id="Signup" stroke="none" stroke-width="1" fill="none" fill-rule="evenodd">
        <g id="Error" transform="translate(-755.000000, -324.000000)">
            <g transform="translate(755.000000, 326.000000)">
                <path d="M304.837209,93.8639104 C304.837209,89.7115525 303.253788,85.5551357 300.090996,82.380997 C296.932254,79.2149763 292.781342,77.627907 288.63853,77.627907 L102.353718,77.627907 C98.2109058,77.627907 94.0599943,79.2149763 90.9012518,82.380997 C87.7384597,85.5551357 86.1550388,89.7115525 86.1550388,93.8639104 L86.1550388,223.751938 L304.837209,223.751938 L304.837209,93.8639104 Z" id="Fill-1" fill="#D8DFE3"></path>
                <path d="M353,221 L329,221" id="Stroke-33" stroke="#DEE3E7" stroke-width="2"></path>
                <path d="M392,202 L344,202" id="Stroke-34" stroke="#DEE3E7" stroke-width="2"></path>
                <path d="M39,57 L63,57" id="Stroke-35" stroke="#DEE3E7" stroke-width="2"></path>
                <path d="M0,76 L48,76" id="Stroke-36" stroke="#DEE3E7" stroke-width="2"></path>
                <polygon id="Fill-3" fill="#FFFFFF" points="103.286822 207.627907 290.728682 207.627907 290.728682 93.751938 103.286822 93.751938"></polygon>
                <polygon id="Fill-5" fill="#F7FBFD" points="66 231.813953 326 231.813953 326 223.751938 66 223.751938"></polygon>
                <path d="M326,231.813953 C326,235.937674 324.411563,240.065426 321.23875,243.213643 C318.07,246.36186 313.905938,247.937984 309.75,247.937984 L82.25,247.937984 C78.0940625,247.937984 73.93,246.36186 70.76125,243.213643 C67.5884375,240.065426 66,235.937674 66,231.813953 L326,231.813953 Z" id="Fill-6" fill="#EFF4F7"></path>
                <polygon id="Fill-7" fill="#D8E0E4" points="221.067829 231.813953 171.939922 231.813953 163.751938 223.751938 229.255814 223.751938"></polygon>
                <polygon id="Fill-8" fill="#EFF4F7" points="103.286822 207.627907 290.728682 207.627907 290.728682 191.503876 103.286822 191.503876"></polygon>
                <polygon id="Fill-9" fill="#EFF4F7" points="103.286822 109.875969 290.728682 109.875969 290.728682 93.751938 103.286822 93.751938"></polygon>
                <path d="M281.658915,150.186047 L273.596899,150.186047" id="Stroke-10" stroke="#474545" stroke-width="2"></path>
                <path d="M266.542636,150.186047 L225.224806,150.186047" id="Stroke-11" stroke="#474545" stroke-width="2"></path>
                <path d="M110.341085,150.186047 L118.403101,150.186047" id="Stroke-12" stroke="#474545" stroke-width="2"></path>
                <path d="M127.472868,150.186047 L168.790698,150.186047" id="Stroke-13" stroke="#474545" stroke-width="2"></path>
                <path d="M229.255814,150.689922 C229.255814,168.77718 214.591134,183.44186 196.503876,183.44186 C178.416618,183.44186 163.751938,168.77718 163.751938,150.689922 C163.751938,132.602665 178.416618,117.937984 196.503876,117.937984 C214.591134,117.937984 229.255814,132.602665 229.255814,150.689922" id="Fill-14" stroke="#171fc9" stroke-width="0.5" fill="#171fc9"></path>
                <path d="M175.844961,195.534884 L183.906977,195.534884" id="Stroke-15" stroke="#474545" stroke-width="2"></path>
                <path d="M191.968992,195.534884 L200.031008,195.534884" id="Stroke-16" stroke="#474545" stroke-width="2"></path>
                <path d="M208.093023,195.534884 L216.155039,195.534884" id="Stroke-17" stroke="#474545" stroke-width="2"></path>
                <path d="M183.906977,138.093023 L208.093023,162.27907" id="Stroke-18" stroke="#FFFFFF" stroke-width="2"></path>
                <path d="M183.906977,162.27907 L208.093023,138.093023" id="Stroke-19" stroke="#FFFFFF" stroke-width="2"></path>
                <path d="M138.55814,56.4651163 C138.55814,25.3457364 164.098893,0.0310077519 195.496124,0.0310077519 C226.893355,0.0310077519 252.434109,25.3457364 252.434109,56.4651163" id="Stroke-20" stroke="#171fc9" stroke-width="4"></path>
                <path d="M155.689922,57.4728682 C155.689922,34.6902171 173.773023,16.1550388 196,16.1550388 C218.226977,16.1550388 236.310078,34.6902171 236.310078,57.4728682" id="Stroke-21" stroke="#171fc9" stroke-width="4"></path>
                <path d="M170.806202,57.4728682 C170.806202,44.1342636 181.653643,33.2868217 194.992248,33.2868217 C208.330853,33.2868217 219.178295,44.1342636 219.178295,57.4728682" id="Stroke-22" stroke="#171fc9" stroke-width="4"></path>
                <path d="M204.062016,56.4651163 C204.062016,60.9153488 200.450233,64.5271318 196,64.5271318 C191.549767,64.5271318 187.937984,60.9153488 187.937984,56.4651163 C187.937984,52.0148837 191.549767,48.4031008 196,48.4031008 C200.450233,48.4031008 204.062016,52.0148837 204.062016,56.4651163 Z" id="Stroke-23" stroke="#171fc9" stroke-width="4"></path>
            </g>
        </g>
    </g>
</svg>