<?xml version="1.0" encoding="UTF-8"?>
<svg width="392px" height="215px" viewBox="0 0 392 215" version="1.1" xmlns="http://www.w3.org/2000/svg" xmlns:xlink="http://www.w3.org/1999/xlink">
    <!-- Generator: Sketch 49.1 (51147) - http://www.bohemiancoding.com/sketch -->
    <title>username2</title>
    <desc>Created with Sketch.</desc>
    <defs>
        <path d="M85.61,11.522 C76.871,26.097 60.97,35.845 42.805,35.845 C24.64,35.845 8.74,26.099 0,11.527 L0,0 L85.61,0 L85.61,11.522 Z" id="path-1"></path>
    </defs>
    <g id="Paid-signup" stroke="none" stroke-width="1" fill="none" fill-rule="evenodd">
        <g id="signup3" transform="translate(-665.000000, 0.000000)">
            <g id="username2" transform="translate(665.000000, -14.000000)">
                <polygon id="Shape" fill="#EFF4F7" fill-rule="nonzero" points="86 199 314 199 314 35 86 35"></polygon>
                <polygon id="Shape" fill="#FFFFFF" fill-rule="nonzero" points="100 186 300 186 300 50 100 50"></polygon>
                <path d="M314.000011,35.625 L85.9999894,35.625 L86,7.125 C85.9967365,5.23479497 86.7483895,3.42154015 88.088,2.088 C89.4219809,0.749047375 91.234949,-0.00248675409 93.125,-2.56428213e-15 L306.875,-2.56428213e-15 C308.699,-2.56428213e-15 310.519,0.695 311.912,2.088 C313.251611,3.42154015 314.003264,5.23479497 314,7.125 L314.000011,35.625 Z M314.000012,199.5 L86,199.5 C86,201.324 86.695,203.144 88.088,204.537 C89.4219809,205.875953 91.234949,206.627487 93.125,206.625 L306.875,206.625 C308.765051,206.627487 310.578019,205.875953 311.912,204.537 C313.250953,203.203019 314.002487,201.390051 314.000012,199.5 Z" id="Shape" fill="#D8DFE3" fill-rule="nonzero"></path>
                <path d="M100.25,17.813 L107.375,17.813 M114.5,17.813 L121.625,17.813 M128.75,17.813 L135.875,17.813" id="Shape" stroke="#FFFFFF" stroke-width="2"></path>
                <polygon id="Shape" fill="#BEEFFF" fill-rule="nonzero" points="107.375 178.125 292.625 178.125 292.625 57 107.375 57"></polygon>
                <path d="M274.813,99.75 L274.813,106.875 M274.813,114 L274.813,121.125 M274.813,128.25 L274.813,135.375 M125.188,99.75 L125.188,106.875 M125.188,114 L125.188,121.125 M125.188,128.25 L125.188,135.375" id="Shape" stroke="#FFFFFF" stroke-width="2"></path>
                <polygon id="Shape" stroke="#4BA2F2" stroke-width="0.5" fill="#4BA2F2" fill-rule="nonzero" points="185.75 228 214.25 228 214.25 199.5 185.75 199.5"></polygon>
                <path d="M224.938,188.813 C224.941365,191.648151 223.81413,194.367624 221.806,196.369 C219.804459,198.376763 217.085007,199.50363 214.25,199.5 L185.75,199.5 C182.914993,199.50363 180.195541,198.376763 178.194,196.369 C176.186237,194.367459 175.05937,191.648007 175.063,188.813 L175.062991,178.125 L224.938008,178.125 L224.938,188.813 Z" id="Shape" fill="#7AD3FF" fill-rule="nonzero"></path>
                <path d="M260.563,124.688 C260.563,158.136 233.448,185.25 200,185.25 C166.552,185.25 139.437,158.136 139.437,124.687 C139.437,91.239 166.552,64.125 200,64.125 C233.448,64.125 260.563,91.239 260.563,124.688" id="Shape" stroke="#4BA2F2" stroke-width="0.5" fill="#4BA2F2" fill-rule="nonzero"></path>
                <path d="M249.875,124.688 C249.875,152.233 227.542,174.562 200,174.562 C172.458,174.562 150.125,152.232 150.125,124.687 C150.125,97.142 172.458,74.814 200,74.814 C227.542,74.814 249.875,97.144 249.875,124.688" id="Shape" fill="#FFFFFF" fill-rule="nonzero"></path>
                <path d="M353,187 L329,187 M392,168 L344,168 M39,23 L63,23 M0,42 L48,42" id="Shape" stroke="#DEE3E7" stroke-width="2"></path>
                <g id="Group" transform="translate(157.000000, 85.000000)">
                    <g id="Clipped" transform="translate(0.000000, 53.767000)">
                        <g id="Group">
                            <g id="Shape-Clipped">
                                <mask id="mask-2" fill="white">
                                    <use xlink:href="#path-1"></use>
                                </mask>
                                <g id="path-1"></g>
                                <path d="M83.477,15.661 C82.0885497,13.3977625 80.0961919,11.5667881 77.724,10.374 L57.074,0 L28.538,0 L7.888,10.374 C5.51440384,11.5661945 3.52036353,13.3967776 2.13,15.66 C0.733283435,17.9262672 -0.00430142624,20.536902 2.03448505e-15,23.199 L2.03448505e-15,32.261 L2.572,33.551 C8.73916685,36.6539388 15.248037,39.0250416 21.966,40.616 C28.833,42.247 36.046,43.014 42.805,43.014 C49.561,43.014 56.777,42.247 63.64,40.616 C70.3581393,39.0256302 76.8670768,36.6545028 83.034,33.551 L85.609,32.261 L85.609,23.199 C85.6119497,20.5369886 84.8733471,17.9267746 83.476,15.661" id="Shape" fill="#1A5099" fill-rule="nonzero" mask="url(#mask-2)"></path>
                            </g>
                        </g>
                    </g>
                    <path d="M55.596,52.283 C54.9319961,51.6170616 54.4059456,50.8266264 54.048,49.957 C53.6897963,49.0857939 53.505338,48.1529713 53.505,47.211 L53.505,39.429 L32.103,39.429 L32.103,47.211 C32.103,48.128 31.928,49.061 31.561,49.957 C31.2030544,50.8266264 30.6770039,51.6170616 30.013,52.283 L28.536,53.767 C28.536,61.685 34.925,68.105 42.804,68.105 C50.684,68.105 57.073,61.685 57.073,53.767 L55.596,52.283 Z" id="Shape" fill="#CFD3D6" fill-rule="nonzero"></path>
                    <path d="M55.415,5.25 C52.0811297,1.88668934 47.5406664,-0.00367011012 42.805,1.23973047e-14 C38.0694895,-0.00486759363 33.52882,1.88485752 30.195,5.248 C26.8410054,8.61266914 24.96144,13.1721891 24.97,17.923 L24.97,25.092 L24.977,25.092 C24.977,34.68 30.917,46.599 42.805,46.599 C54.691,46.599 60.634,34.68 60.634,25.092 L60.641,25.092 L60.641,17.922 C60.641,13.335 58.9,8.75 55.415,5.248" id="Shape" fill="#DFE3E6" fill-rule="nonzero"></path>
                </g>
            </g>
        </g>
    </g>
</svg>