<?xml version="1.0" encoding="UTF-8"?>
<svg width="502px" height="118px" viewBox="0 0 502 118" version="1.1" xmlns="http://www.w3.org/2000/svg" xmlns:xlink="http://www.w3.org/1999/xlink">
  <defs></defs>
  <g id="Page-1" stroke="none" stroke-width="1" fill="none" fill-rule="evenodd">
    <g id="steemit-logotype-teal-on-white" fill="#07DFB0" fill-rule="nonzero">
      <g id="SteemIt_LogoType_Logo" transform="translate(0.255814, 0.202381)">
        <path d="M102.134643,35.5286068 C97.2328231,30.6294828 91.527426,27.0447579 85.4604193,24.7346018 C88.9961583,14.3388996 101.53196,10.5550233 101.53196,10.5550233 C101.53196,10.5550233 72.2817557,-4.6203121 39.9779582,1.43388996 C29.2100258,3.14659186 18.8840607,9.75841779 11.3304364,18.4812484 C-5.06253542,37.4006298 -2.89287738,65.8792777 16.1920776,82.1300306 C19.1251338,84.639338 22.2992631,86.6706821 25.593929,88.3037235 C25.5537502,88.2638932 25.5537502,88.1842326 25.5135713,88.1444023 C25.593929,88.3435537 25.6742868,88.5427051 25.7948233,88.7418565 C21.4956861,99.6553523 7.75451853,102.642623 7.75451853,102.642623 C7.75451853,102.642623 25.9153599,113.994252 50.3039233,116.941692 C56.7727186,117.738298 63.6433024,117.937449 70.7549593,117.180674 C82.0452168,116.264578 93.2952955,110.290036 101.853391,101.885848 C120.375842,83.6435811 120.536558,53.9301947 102.134643,35.5286068 Z M93.7774418,94.6367375 C86.8666791,101.407884 76.540714,105.709554 68.5853012,106.307009 C68.5049435,106.307009 68.4245858,106.307009 68.384407,106.307009 C62.9602619,106.864632 56.933434,106.944293 51.1476792,106.227348 C42.6297625,105.191761 36.4823981,102.841774 30.4555702,100.571449 C33.509163,97.6240082 36.5627558,93.56132 37.8083002,90.0562556 C38.6118773,87.9850812 38.5315196,85.6749252 37.5672271,83.6435811 C31.0984318,70.3402687 33.9109515,54.408158 44.5583474,44.052286 C52.2726871,36.5243637 62.8799042,32.9794691 73.6478366,34.2938682 C81.5630706,35.2497949 88.7550852,38.715029 94.3801245,44.331098 C108.040934,58.0327132 107.558788,81.2139342 93.7774418,94.6367375 Z" id="Shape"></path>
      </g>
      <g id="Group-2" transform="translate(155.048609, 13.676395)">
        <path d="M0,59.6953712 C1.55320333,69.8663508 10.1555603,76.0162454 22.5811869,76.0162454 C34.5289049,76.0162454 43.2507389,69.6298164 43.2507389,59.2223024 C43.2507389,51.5349342 38.7106061,46.4494444 29.6303405,44.3206347 L18.3994856,41.7187562 C14.5762159,40.7726186 12.9035354,39.2351449 12.9035354,36.8698009 C12.9035354,32.7304487 17.2047138,30.8381735 21.3864151,30.8381735 C26.8823654,30.8381735 29.988772,33.2035175 31.0640666,36.6332665 L42.7728302,36.6332665 C40.9806725,27.0536229 33.931519,21.1402627 21.5058923,21.1402627 C9.91660589,21.1402627 1.43372615,28.1180278 1.43372615,37.5794041 C1.43372615,46.21291 7.04915359,50.2339949 14.5762159,52.008003 L25.5681164,54.6098815 C29.988772,55.6742863 31.7809297,57.21176 31.7809297,60.0501729 C31.7809297,64.189525 28.1966143,66.3183347 22.7006641,66.3183347 C17.4436682,66.3183347 13.5009213,64.0712578 12.1866723,59.6953712 L0,59.6953712 Z M57.7074777,60.6415089 C57.7074777,71.0490228 64.3981997,76.0162454 73.8368969,76.0162454 C77.5406894,76.0162454 80.7665733,75.3066422 82.7976853,74.1239701 L82.7976853,63.3616546 C81.1250048,64.5443266 78.3770297,65.4904642 75.9874861,65.4904642 C72.0447392,65.4904642 69.6551956,63.598189 69.6551956,59.3405696 L69.6551956,32.1391127 L81.6029135,32.1391127 L81.6029135,22.3229348 L69.6551956,22.3229348 L69.6551956,8.24913748 L57.7074777,8.24913748 L57.7074777,14.2216313 C57.7074777,14.8376063 57.7074777,15.5753627 57.7074777,16.4349005 C57.7074777,20.689369 54.1679662,22.3229348 51.741086,22.3229348 C50.1231659,22.3229348 49.3241622,22.3229348 49.3440751,22.3229348 L49.3440751,32.1391127 L57.7074777,32.1391127 L57.7074777,60.6415089 Z M321.677371,60.6415089 C321.677371,71.0490228 328.368093,76.0162454 337.80679,76.0162454 C341.510583,76.0162454 344.736467,75.3066422 346.767579,74.1239701 L346.767579,63.3616546 C345.094898,64.5443266 342.346923,65.4904642 339.957379,65.4904642 C336.014632,65.4904642 333.625089,63.598189 333.625089,59.3405696 L333.625089,32.1391127 L345.572807,32.1391127 L345.572807,22.3229348 L333.625089,22.3229348 L333.625089,8.24913748 L321.677371,8.24913748 L321.677371,14.2216313 C321.677371,14.8376063 321.677371,15.5753627 321.677371,16.4349005 C321.677371,20.689369 318.137859,22.3229348 315.710979,22.3229348 C314.093059,22.3229348 313.294056,22.3229348 313.313968,22.3229348 L313.313968,32.1391127 L321.677371,32.1391127 L321.677371,60.6415089 Z M126.974372,58.5126992 L137.966273,58.5126992 C136.174115,68.9202132 128.408099,76.0162454 115.62404,76.0162454 C100.80887,76.0162454 90.5338327,64.8991282 90.5338327,48.6965213 C90.5338327,32.9669831 100.928347,21.1402627 115.385086,21.1402627 C130.319733,21.1402627 138.444182,31.6660439 138.444182,47.0407804 L138.444182,51.2983998 L102.242596,51.2983998 C102.601028,60.5232417 107.977501,66.0818003 115.62404,66.0818003 C121.358945,66.0818003 125.660123,63.598189 126.974372,58.5126992 Z M115.504563,31.0747079 C108.933318,31.0747079 104.034754,35.0957928 102.601028,42.6648939 L126.615941,42.6648939 C126.496464,36.2784648 122.792671,31.0747079 115.504563,31.0747079 Z M182.172829,58.5126992 L193.16473,58.5126992 C191.372572,68.9202132 183.606555,76.0162454 170.822497,76.0162454 C156.007327,76.0162454 145.73229,64.8991282 145.73229,48.6965213 C145.73229,32.9669831 156.126804,21.1402627 170.583543,21.1402627 C185.51819,21.1402627 193.642639,31.6660439 193.642639,47.0407804 L193.642639,51.2983998 L157.441053,51.2983998 C157.799485,60.5232417 163.175958,66.0818003 170.822497,66.0818003 C176.557402,66.0818003 180.85858,63.598189 182.172829,58.5126992 Z M170.70302,31.0747079 C164.131775,31.0747079 159.233211,35.0957928 157.799485,42.6648939 L181.814398,42.6648939 C181.694921,36.2784648 177.991128,31.0747079 170.70302,31.0747079 Z M243.449688,28.1180278 C240.701713,24.0969428 235.444717,21.1402627 229.470858,21.1402627 C223.496999,21.1402627 218.717912,23.3873396 216.208891,26.6988213 L216.208891,22.3229348 L204.261173,22.3229348 L204.261173,74.8335734 L216.208891,74.8335734 L216.208891,39.5899466 C217.284185,34.3861896 221.34641,31.7843111 225.647588,31.7843111 C231.50197,31.7843111 234.369422,36.0419304 234.369422,42.5466267 L234.369422,74.8335734 L246.31714,74.8335734 L246.31714,39.5899466 C247.392435,34.3861896 251.454659,31.7843111 255.755837,31.7843111 C261.610219,31.7843111 264.477671,36.0419304 264.477671,42.5466267 L264.477671,74.8335734 L276.425389,74.8335734 L276.425389,40.6543514 C276.425389,28.7093638 270.093099,21.1402627 259.220675,21.1402627 C252.052045,21.1402627 247.15348,23.8604084 243.449688,28.1180278 Z M302.42661,22.1751008 L290.478892,22.1751008 L290.478892,74.6857394 L302.42661,74.6857394 L302.42661,22.1751008 Z M303.920075,7.39170025 C303.920075,3.27173618 300.427295,0 296.452751,0 C292.478208,0 288.985428,3.27173618 288.985428,7.39170025 C288.985428,11.5116643 292.478208,14.7834005 296.452751,14.7834005 C300.427295,14.7834005 303.920075,11.5116643 303.920075,7.39170025 Z" id="steemit"></path>
      </g>
    </g>
  </g>
</svg>